<?xml version="1.0" encoding="UTF-8"?>
<svg data-bbox="0 0 64 64" viewBox="0 0 64 64" height="64" width="64" xmlns="http://www.w3.org/2000/svg" data-type="color">
  <g>
    <path fill="#fb4c7b" d="M64 4v56a4 4 0 0 1-4 4H4a4 4 0 0 1-4-4V4a4 4 0 0 1 4-4h56a4 4 0 0 1 4 4z" data-color="1"/>
    <path fill="#ffffff" d="M43.657 13.288q-.229-.229-.465-.452c7.337 4.312 13.314 10.713 15.894 17.824v.011a10.689 10.689 0 0 1 0 5.557v.008c-2.54 7.062-8.515 13.465-15.858 17.792.146-.136.288-.275.429-.416a28.432 28.432 0 0 0 0-40.326Z" data-color="2"/>
    <path fill="#ffffff" d="M48.378 32.349a21.565 21.565 0 1 0-21.565 21.682 21.623 21.623 0 0 0 21.565-21.682Z" data-color="2"/>
    <path fill="#fb4c7b" d="M42.832 32.348a16.02 16.02 0 1 0-16.02 16.107 16.063 16.063 0 0 0 16.02-16.107Z" data-color="1"/>
  </g>
</svg>
